<svg xmlns="http://www.w3.org/2000/svg" width="32" height="32"><path fill="#6CBE45" d="M0 0h32v32H0z"/><path fill="#FFF" d="M16 3.543c-7.177 0-13 4.612-13 10.294 0 3.35 2.027 6.33 5.16 8.21 1.71 1.565 1.542 4.08-.827 6.41 2.874 0 7.445-1.698 8.462-4.34H16c7.176 0 13-4.605 13-10.285s-5.824-10.29-13-10.29z"/><g fill="#6CBE45"><path d="M9.045 17.376c-.73 0-1.45-.19-1.81-.388l.294-1.194c.387.2.984.398 1.6.398.663 0 1.014-.275 1.014-.692 0-.398-.304-.625-1.07-.9-1.062-.37-1.754-.957-1.754-1.886 0-1.09.91-1.924 2.416-1.924.72 0 1.25.152 1.63.322l-.322 1.166c-.257-.123-.71-.303-1.337-.303-.625 0-.93.284-.93.616 0 .408.36.588 1.186.9 1.127.42 1.658 1.006 1.658 1.906.003 1.07-.822 1.98-2.575 1.98zM18.098 17.28l-.095-2.444c-.028-.768-.057-1.696-.057-2.625h-.028c-.2.816-.465 1.725-.71 2.475l-.778 2.492h-1.128l-.682-2.473c-.208-.75-.426-1.658-.578-2.493h-.02c-.037.863-.065 1.85-.112 2.645l-.114 2.426H12.46l.407-6.386h1.924l.626 2.132c.2.74.398 1.536.54 2.284h.028c.18-.74.398-1.582.607-2.293l.683-2.123h1.886l.35 6.387h-1.412zM22.187 17.376c-.73 0-1.45-.19-1.81-.388l.294-1.194c.39.2.986.398 1.602.398.663 0 1.014-.275 1.014-.692 0-.398-.304-.625-1.07-.9-1.063-.37-1.754-.957-1.754-1.886 0-1.09.91-1.924 2.417-1.924.72 0 1.25.152 1.63.322l-.323 1.166c-.256-.123-.71-.303-1.337-.303-.625 0-.93.284-.93.616 0 .408.36.588 1.186.9 1.127.42 1.658 1.006 1.658 1.906 0 1.07-.824 1.98-2.577 1.98z"/></g></svg>